<svg width="233" height="82" viewBox="0 0 233 82" fill="none" xmlns="http://www.w3.org/2000/svg">
<path d="M0 71.0564C0.15405 70.3023 0.231074 69.5096 0.442893 68.7748C1.94488 63.419 5.2762 59.8614 10.7257 58.5853C14.1148 57.7925 17.215 58.5659 19.8339 61.0021C19.8917 61.0408 19.9494 61.0795 20.065 61.1762C20.2768 59.8227 20.4693 58.5273 20.6619 57.2318C21.2974 52.8814 21.9521 48.5117 22.5875 44.1613C23.223 39.8109 23.8584 35.4799 24.5131 31.1295C25.1293 27.0111 25.7263 22.8927 26.3425 18.755C26.4002 18.407 26.4195 18.059 26.4965 17.7109C26.7661 16.3768 28.2681 15.7968 29.2887 16.5702C33.4095 19.6831 37.5881 22.7381 41.7282 25.8317C42.0555 26.0637 42.2481 26.0637 42.5755 25.851C49.835 20.7465 57.1139 15.6421 64.3927 10.5376C64.6238 10.3636 64.8741 10.1896 65.1437 10.0929C66.1835 9.7449 67.1464 10.4216 67.0308 11.5237C66.896 12.9158 66.665 14.2886 66.4531 15.6614C65.8369 19.7991 65.2207 23.9368 64.6238 28.0745C63.9113 32.947 63.1796 37.8194 62.4671 42.6725C61.8316 47.0036 61.1962 51.354 60.5607 55.685C60.0601 59.0493 59.752 62.4523 58.9817 65.7392C57.7108 71.1724 54.341 74.8847 48.8915 76.2962C42.2673 78.017 36.375 73.1639 36.4712 66.2613C36.5675 59.9387 41.189 54.2929 47.3317 53.1134C50.7016 52.4754 53.7248 53.2295 56.2666 55.627C56.3051 55.6657 56.3629 55.685 56.4592 55.7623C57.7301 47.1389 59.001 38.5735 60.2526 29.9887C59.9445 29.9694 59.8097 30.1627 59.6364 30.2787C53.3397 34.6871 47.0429 39.1149 40.7269 43.5426C39.6293 44.316 39.2056 44.316 38.1273 43.5233C34.9115 41.1257 31.6764 38.7475 28.4607 36.3499C28.2874 36.2146 28.114 36.0986 27.8445 35.9052C27.7097 36.7946 27.5749 37.6454 27.4593 38.4768C26.7276 43.3879 26.0151 48.2797 25.2834 53.1908C24.5709 58.0245 23.8777 62.8583 23.1459 67.6921C22.8571 69.5676 22.7223 71.5011 21.9328 73.2606C20.0072 77.6496 16.8492 80.6466 12.1121 81.7873C11.727 81.884 11.3226 81.9034 10.9183 81.9807C10.2828 81.9807 9.64735 81.9807 9.0119 81.9807C4.52521 81.536 1.21314 78.5004 0.288843 74.0146C0.192562 73.4733 0.231074 72.8932 0 72.3712C0 71.9458 0 71.5011 0 71.0564Z" fill="#FE6E01"/>
<path d="M138.375 31.9802C138.317 33.2949 137.951 34.5711 137.778 35.8858C137.74 36.2532 137.643 36.6012 137.586 36.9686C137.509 37.0073 137.432 37.0653 137.47 37.1813V37.162C137.123 37.336 136.969 37.6647 136.719 37.9354C134.139 40.7969 131.096 42.9045 127.283 43.7359C125.743 44.0839 124.203 44.1612 122.643 43.8906C120.582 43.5232 118.888 42.5758 117.867 40.5843C116.981 41.7057 116.076 42.7498 115.037 43.6585C113.515 44.9733 111.821 45.9594 109.818 46.2881C108.066 46.5781 106.699 46.0367 106.044 44.7413C105.678 44.0259 105.524 43.2525 105.505 42.4598C105.505 42.1311 105.505 41.8024 105.505 41.377C104.446 42.5371 103.406 43.6005 102.212 44.4899C99.2465 46.7328 95.9922 48.357 92.2565 48.8017C90.1383 49.053 88.0779 48.8597 86.2485 47.6222C85.9597 47.4289 85.8634 47.6222 85.7094 47.7576C84.3807 48.937 82.9172 49.8844 81.1842 50.3485C80.5487 50.5225 79.894 50.6385 79.2393 50.6192C77.6795 50.5611 76.6012 49.7104 76.1583 48.1829C76.1005 47.9703 76.0428 47.7576 75.985 47.5062C75.7539 47.5836 75.6384 47.7962 75.5036 47.9316C74.0016 49.5751 72.3263 50.9672 70.2274 51.7793C69.6112 52.0113 68.9757 52.166 68.321 52.2433C66.1643 52.4947 64.7009 51.2959 64.412 49.111C64.2002 47.5449 64.5468 46.0367 64.7971 44.5286C65.2015 42.1117 65.6059 39.7142 66.0295 37.3166C66.0873 36.9879 66.0103 36.6592 65.991 36.3305C65.9333 35.3445 66.2028 34.9964 67.1656 34.8611C68.6291 34.6484 70.0926 34.4357 71.5753 34.2424C71.7871 34.2037 72.0182 34.1844 72.23 34.2037C73.0388 34.223 73.4239 34.5711 73.3276 35.3638C73.1736 36.6592 72.9425 37.9354 72.7307 39.2308C72.4804 40.7969 72.2108 42.3438 71.9412 43.9099C71.9219 44.0452 71.9027 44.1612 71.9027 44.2966C71.9027 44.7606 71.8642 45.2633 72.3263 45.534C72.8077 45.8241 73.2891 45.6307 73.732 45.36C74.9451 44.6253 75.8309 43.5425 76.4664 42.3244C76.8323 41.609 76.813 40.6809 76.9671 39.8495C77.1789 38.6508 77.3522 37.452 77.5832 36.2725C77.718 35.6345 77.641 34.9964 77.641 34.3584C77.6218 33.6236 77.8528 33.3529 78.5653 33.2563C80.1443 33.0242 81.7233 32.7922 83.2831 32.5795C83.4179 32.5602 83.5334 32.5602 83.6682 32.5602C84.7466 32.5409 85.1509 32.9856 84.9776 34.049C84.6118 36.2339 84.2266 38.4187 83.8608 40.6229C83.7452 41.3577 83.6104 42.1117 83.5527 42.8658C83.4949 43.7745 83.9956 44.1612 84.8043 43.9486C85.1124 43.8712 85.1509 43.6585 85.228 43.4458C85.9597 41.7444 87.9238 40.6036 89.6184 40.8936C91.0048 41.1256 91.6403 42.1891 91.2166 43.5232C90.9471 44.3546 90.3886 44.9733 89.7147 45.534C90.0035 45.8241 90.3694 45.8627 90.6967 45.9014C92.5261 46.0948 94.4517 44.722 94.9331 42.9238C95.1449 42.1117 94.9331 41.4737 94.3169 40.9516C93.6814 40.4102 92.9112 40.0815 92.1795 39.7335C91.544 39.4242 90.9278 39.1148 90.3694 38.7088C89.0792 37.742 88.5978 36.3305 89.1177 34.8031C89.5606 33.527 90.2923 32.4442 91.3322 31.5741C91.9291 31.0714 92.6223 30.8587 93.3926 30.762C94.9331 30.5687 96.4736 30.3367 98.0141 30.1047C98.3029 30.066 98.5918 30.066 98.8806 30.124C99.4775 30.24 99.6701 30.6654 99.3235 31.1681C99.208 31.3421 99.0347 31.4968 98.8806 31.6515C98.688 31.8255 98.4762 31.9608 98.2837 32.1348C97.1283 33.0823 97.1668 33.817 98.4185 34.6484C98.9769 35.0158 99.5738 35.3445 100.152 35.7118C102.096 37.0073 102.713 38.5154 102.25 40.8163C102.212 40.971 102.193 41.1256 102.154 41.377C103.117 40.7389 103.849 40.0042 104.523 39.1921C105.235 38.3221 105.851 37.3746 106.313 36.3692C106.641 35.6538 106.66 34.8417 106.795 34.0683C107.026 32.7149 107.353 31.3808 107.257 29.9693C107.219 29.3119 107.469 29.0799 108.104 28.9832C109.703 28.7512 111.282 28.4998 112.88 28.2872C114.17 28.1131 114.709 28.6739 114.497 29.9693C114.093 32.5409 113.631 35.1124 113.207 37.684C113.13 38.1094 113.092 38.5154 113.149 38.9408C113.226 39.4822 113.554 39.7335 114.112 39.6948C114.555 39.6562 114.96 39.4628 115.325 39.2115C116.23 38.5734 116.866 37.7033 117.482 36.7946C117.54 36.7172 117.559 36.6206 117.578 36.5432C118.426 32.6375 120.813 29.9113 124.087 27.8618C126.167 26.547 128.458 25.8123 130.942 25.8509C132.078 25.8703 133.195 26.083 134.235 26.5857C136.045 27.4558 136.738 28.9252 136.141 30.8394C135.525 32.8502 134.331 34.3584 132.213 34.9191C131.924 34.9964 131.597 35.0351 131.289 35.0544C129.459 35.1124 128.42 33.7783 128.901 32.0188C129.267 30.704 130.172 29.8146 131.327 29.1766C131.385 29.1379 131.443 29.0992 131.52 29.0606C131.019 28.5579 129.845 28.3838 128.997 28.6545C126.975 29.3119 125.916 30.8587 125.3 32.7729C124.973 33.759 124.876 34.7837 125.108 35.8085C125.647 38.148 127.534 39.2888 130.037 38.8054C132.829 38.2834 134.947 36.7172 136.7 34.5517C137.258 33.7396 137.74 32.8116 138.375 31.9802Z" fill="#FE6E01"/>
<path d="M112.957 21.7133C113.958 21.7519 114.921 21.9453 115.402 22.97C115.884 24.0141 115.46 24.9422 114.767 25.6963C113.4 27.1464 111.744 27.8618 109.741 27.4751C108.239 27.1851 107.623 25.967 108.239 24.5748C108.913 23.028 110.242 22.3126 111.763 21.8679C112.148 21.7519 112.553 21.7133 112.957 21.7133Z" fill="#FE6E01"/>
<path d="M230.843 16.9182C230.208 18.5037 229.457 20.0312 228.494 21.4426C228.013 22.158 227.473 22.8347 226.703 23.2794C226.241 23.5501 225.74 23.7822 225.201 23.5115C224.643 23.2214 224.527 22.6607 224.547 22.1C224.604 20.7659 224.932 19.4511 225.143 18.1363C225.702 14.7527 226.28 11.3884 226.857 8.02408C227.204 6.01323 227.57 3.98305 227.897 1.9722C227.955 1.64351 227.955 1.31481 227.936 0.986114C227.897 0.309387 227.339 0.193377 226.838 0.0386963H226.511C226.453 0.0773664 226.395 0.116037 226.318 0.135372C224.739 0.367392 223.179 0.618748 221.6 0.792764C220.888 0.870104 220.561 1.21814 220.561 2.04954C220.561 2.47491 220.715 2.88095 220.638 3.30632C220.272 5.3365 219.925 7.38602 219.578 9.4162C219.29 11.1177 218.981 12.8385 218.693 14.54C218.5 14.5593 218.385 14.424 218.269 14.366C217.191 13.6893 215.997 13.4379 214.745 13.5539C213.128 13.7086 211.587 14.1726 210.201 15.0427C206.946 17.0536 204.828 19.9345 204.039 23.6855C203.846 24.5556 203.48 25.2129 202.883 25.793C202.537 26.1217 202.094 26.5471 201.593 26.3537C201.054 26.141 201.092 25.5223 201.131 25.0389C201.227 23.6468 201.381 22.274 201.497 20.8819C201.593 19.7411 201.612 18.6004 201.247 17.4983C200.996 16.7442 200.515 16.2608 199.706 16.1061C199.128 15.9901 198.57 16.1255 198.031 16.2608C195.97 16.8215 194.526 18.233 193.197 19.7991C192.312 20.8432 191.657 22.0613 190.906 23.2021C190.906 23.2021 190.906 23.2021 190.906 23.2214C190.906 23.2214 190.906 23.2214 190.887 23.2408V23.2214C190.867 22.9507 190.906 22.6801 190.944 22.4094C191.156 21.1913 191.387 19.9538 191.541 18.7164C191.695 17.5563 191.349 17.1502 190.193 17.2662C188.46 17.4403 186.727 17.7303 184.994 17.9623C184.59 18.0203 184.378 18.291 184.301 18.697C184.224 19.0644 184.301 19.4318 184.301 19.7798C184.301 20.9012 183.993 21.984 183.82 23.0861C183.704 23.8015 183.723 24.5749 183.396 25.2323C182.838 26.3924 182.183 27.4945 181.374 28.4999C180.777 29.2346 180.161 29.9114 179.237 30.2594C178.312 30.6074 177.638 30.1241 177.735 29.138C177.754 28.8673 177.812 28.5966 177.85 28.3259C178.274 25.735 178.736 23.1248 179.14 20.5339C179.314 19.4318 178.909 18.9484 177.812 19.0064C176.021 19.1031 174.269 19.4704 172.497 19.7025C172.131 19.7605 171.958 20.0312 171.881 20.3985C171.804 20.7465 171.862 21.0946 171.881 21.4426C171.9 22.6027 171.573 23.7241 171.38 24.8649C171.265 25.5803 171.245 26.3344 170.976 27.0111C170.571 27.9779 170.052 28.8866 169.435 29.7374C169.069 30.2401 168.684 30.7234 168.107 31.0135C167.49 31.3035 167.163 31.1875 167.048 30.5108C166.836 29.312 167.144 28.1325 167.221 26.9531C167.317 25.619 167.49 24.2849 167.259 22.9507C167.009 21.3846 166.065 20.6692 164.525 20.9012C163.735 21.0172 162.965 21.2879 162.253 21.6746C160.558 22.5834 159.345 23.9948 158.305 25.5803C157.766 26.3924 157.285 27.2431 156.688 28.2099C156.803 27.0111 156.861 25.9477 156.726 24.8843C156.495 22.9894 155.263 22.0807 153.414 22.5254C152.22 22.8154 151.238 23.4728 150.333 24.2655C148.639 25.7737 147.368 27.6105 146.193 29.5247C146.097 29.6793 146.02 29.8534 145.808 30.008C145.846 29.7954 145.866 29.66 145.885 29.5053C146.135 27.9972 146.405 26.4697 146.655 24.9616C146.79 24.1689 146.347 23.6855 145.558 23.6661C145.365 23.6661 145.192 23.6468 144.999 23.6855C143.401 23.8982 141.822 24.1302 140.224 24.3622C139.492 24.4782 139.165 24.8069 139.261 25.561C139.376 26.3731 139.242 27.1271 139.107 27.9005C138.856 29.2153 138.741 30.5494 138.375 31.8449C138.433 31.9222 138.471 31.9996 138.337 32.0576C138.279 33.3723 137.913 34.6485 137.74 35.9439C137.701 36.3113 137.605 36.6593 137.547 37.0267C137.528 37.104 137.547 37.2007 137.451 37.2394C137.451 37.394 137.47 37.5681 137.451 37.7227C137.258 38.8828 137.066 40.0429 136.873 41.1837C136.777 41.7444 137.027 42.1311 137.586 42.1891C137.817 42.2085 138.067 42.2278 138.298 42.1891C139.704 41.9958 141.109 41.7831 142.515 41.5897C143.516 41.4544 144.056 40.8937 144.133 39.8883C144.152 39.5789 144.21 39.2695 144.267 38.9602C144.556 37.394 144.576 35.7312 145.673 34.3971C146.174 33.7784 146.597 33.121 147.06 32.4829C147.368 32.0576 147.714 31.6902 148.099 31.3615C148.331 31.1488 148.639 31.0521 148.908 31.1875C149.236 31.3422 149.12 31.6709 149.082 31.9222C148.985 32.6183 148.831 33.3337 148.716 34.0297C148.408 35.8666 148.08 37.7034 147.791 39.5596C147.676 40.3136 147.945 40.6037 148.716 40.623C148.908 40.623 149.12 40.623 149.313 40.5843C150.449 40.4103 151.585 40.217 152.721 40.0816C154.492 39.8496 154.916 39.3855 155.147 37.6261C155.378 35.8666 155.571 34.0877 156.572 32.5409C157.15 31.6515 157.612 30.6848 158.44 29.9694C158.594 29.834 158.748 29.6793 158.979 29.776C159.191 29.8727 159.23 30.0854 159.21 30.2981C159.191 31.1101 159.191 31.9029 159.152 32.715C159.075 34.1844 159.056 35.6539 159.557 37.0653C159.903 38.0514 160.558 38.6701 161.617 38.8055C162.33 38.9022 163.004 38.7475 163.658 38.5155C165.854 37.7421 167.394 36.1373 168.896 34.4358C169.32 33.9524 169.705 33.4303 170.109 32.9276C170.186 33.4497 170.244 33.8944 170.34 34.3391C170.648 35.8859 171.553 36.7947 173.075 37.046C173.71 37.162 174.346 37.0267 174.981 36.9107C176.964 36.5046 178.582 35.4412 180.065 34.1071C180.873 33.3917 181.586 32.5796 182.356 31.6322C182.183 32.6956 182.029 33.6237 181.894 34.5518C181.759 35.3832 182.202 35.8472 183.049 35.7506C184.513 35.5572 185.976 35.3445 187.44 35.0932C188.229 34.9578 189.038 34.1457 189.154 33.469C189.231 32.9083 189.288 32.3476 189.385 31.7869C189.789 29.544 190.559 27.4751 192.023 25.6963C192.254 25.4256 192.466 25.1163 192.832 24.9616C193.12 24.8456 193.313 24.8456 193.371 25.2323C193.506 25.967 193.467 26.7017 193.409 27.4365C193.313 28.9446 193.255 30.4334 193.64 31.9222C194.083 33.585 195.258 34.3004 196.952 33.9524C199.032 33.527 200.553 32.2509 201.998 30.8201C202.768 30.0467 203.461 29.196 204.135 28.2872C204.193 28.3839 204.231 28.4612 204.27 28.5192C205.175 30.8008 206.831 31.9415 209.276 31.9029C210.798 31.8835 212.242 31.4775 213.609 30.8394C214.957 30.2014 216.093 29.312 217.114 28.1905C217.191 28.3452 217.248 28.4612 217.306 28.5579C218.057 30.0467 219.251 30.3367 220.464 30.3174C222.159 30.2787 223.68 29.6793 225.066 28.7319C227.743 26.9338 229.572 24.4202 231.132 21.6553C231.96 20.2052 232.519 18.639 233 17.0342V16.2608C232.23 15.5067 231.248 15.8934 230.843 16.9182ZM218.019 18.639C217.73 20.2632 217.441 21.8873 217.152 23.4921C217.075 23.9562 216.786 24.2655 216.459 24.5942C215.843 25.1936 215.169 25.677 214.302 25.8123C213.282 25.967 212.454 25.5223 212.049 24.5749C211.799 24.0142 211.683 23.4341 211.664 22.6607C211.914 20.7272 212.627 18.871 214.63 17.885C215.669 17.3629 216.748 17.3629 217.749 18.0396C217.999 18.2137 218.076 18.3877 218.019 18.639Z" fill="white"/>
<path d="M175.328 18.2909C174.692 18.2136 174.018 18.1556 173.46 17.7109C172.767 17.1695 172.555 16.4154 172.863 15.4874C173.287 14.2112 174.269 13.4378 175.424 12.9158C176.31 12.5098 177.234 12.2777 178.235 12.4324C180.257 12.7418 180.97 14.5013 179.699 16.1061C178.601 17.5175 177.099 18.1749 175.328 18.2909Z" fill="white"/>
</svg>
