<?xml version="1.0" encoding="utf-8"?>
<!-- Generator: Adobe Illustrator 26.0.1, SVG Export Plug-In . SVG Version: 6.00 Build 0)  -->
<svg version="1.1" id="Lag_1" xmlns="http://www.w3.org/2000/svg" xmlns:xlink="http://www.w3.org/1999/xlink" x="0px" y="0px"
	 viewBox="0 0 129.6 34" style="enable-background:new 0 0 129.6 34;" xml:space="preserve">
<style type="text/css">
	.st0{fill:#FFFFFF;}
	.st1{fill:#F07E26;}
</style>
<g>
	<path class="st0" d="M126.3,20.9c-0.3,0.6-0.8,0.9-1.4,0.9c-0.7,0-1.1-0.3-1.5-0.9c-0.3-0.5-0.4-1.2-0.4-2c0-0.9,0.2-1.6,0.5-2.1
		s0.8-0.8,1.4-0.8c0.6,0,1,0.3,1.3,0.8s0.4,1.2,0.4,2.1C126.7,19.7,126.5,20.4,126.3,20.9 M126.7,10.2v4.3v0.1h-0.1
		c-0.5-0.7-1.3-1-2.2-1c-1,0-1.8,0.2-2.4,0.8s-1.1,1.2-1.4,2c-0.2,0.7-0.4,1.5-0.4,2.5c0,0.9,0.1,1.7,0.3,2.4
		c0.3,0.9,0.8,1.6,1.4,2.1c0.7,0.5,1.5,0.8,2.4,0.8c1,0,1.7-0.4,2.3-1.1h0.1c0,0,0,0,0,0.1v0.7c0,0.1,0,0.1,0.1,0.2s0.1,0.1,0.2,0.1
		h2.3c0.1,0,0.1,0,0.2-0.1c0,0,0.1-0.1,0.1-0.2V10.4c0-0.1,0-0.1-0.1-0.2c0,0-0.1-0.1-0.2-0.1H127c-0.1,0-0.1,0-0.2,0.1
		S126.7,10.2,126.7,10.2 M114.8,13.6c-1.1,0-1.9,0.4-2.4,1.2c0,0,0,0-0.1,0s0,0,0-0.1V14c0-0.1,0-0.1-0.1-0.2s-0.1-0.1-0.2-0.1h-2.3
		c-0.1,0-0.1,0-0.2,0.1c0,0-0.1,0.1-0.1,0.2v9.8c0,0.1,0,0.1,0.1,0.2c0,0,0.1,0.1,0.2,0.1h2.3c0.1,0,0.1,0,0.2-0.1s0.1-0.1,0.1-0.2
		v-6c0-0.5,0.1-1,0.4-1.3c0.3-0.3,0.7-0.5,1.2-0.5s0.9,0.2,1.2,0.5s0.5,0.8,0.5,1.3v6c0,0.1,0,0.1,0.1,0.2s0.1,0.1,0.2,0.1h2.3
		c0.1,0,0.1,0,0.2-0.1c0,0,0.1-0.1,0.1-0.2v-6.6c0-1.1-0.3-2-1-2.7S115.9,13.6,114.8,13.6 M104.7,24h2.3c0.1,0,0.1,0,0.2-0.1
		c0,0,0.1-0.1,0.1-0.2v-9.8c0-0.1,0-0.1-0.1-0.2c0,0-0.1-0.1-0.2-0.1h-2.3c-0.1,0-0.1,0-0.2,0.1c0,0-0.1,0.1-0.1,0.2v9.8
		c0,0.1,0,0.1,0.1,0.2S104.6,24,104.7,24 M105.9,12.6c0.5,0,0.8-0.2,1.1-0.4c0.3-0.3,0.4-0.7,0.4-1.1c0-0.5-0.1-0.8-0.4-1.1
		s-0.7-0.4-1.1-0.4c-0.5,0-0.8,0.1-1.1,0.4s-0.4,0.7-0.4,1.1c0,0.5,0.2,0.8,0.5,1.1C105,12.4,105.4,12.6,105.9,12.6 M99.2,10.2
		l-3,4.7c0,0.1-0.1,0.1-0.1,0l-3-4.7C93,10.1,92.9,10,92.8,10h-2.3c-0.1,0-0.1,0-0.2,0.1c0,0-0.1,0.1-0.1,0.2v13.5
		c0,0.1,0,0.1,0.1,0.2c0,0,0.1,0.1,0.2,0.1h2.3c0.1,0,0.1,0,0.2-0.1c0,0,0.1-0.1,0.1-0.2V15c0-0.1,0-0.1,0-0.1s0.1,0,0.1,0.1
		l2.1,3.3c0.1,0.1,0.2,0.2,0.3,0.2h1.2c0.1,0,0.2-0.1,0.3-0.2l2.1-3.3l0.1-0.1c0,0,0,0,0,0.1v8.8c0,0.1,0,0.1,0.1,0.2
		c0,0,0.1,0.1,0.2,0.1h2.3c0.1,0,0.1,0,0.2-0.1c0,0,0.1-0.1,0.1-0.2V10.3c0-0.1,0-0.1-0.1-0.2c0,0-0.1-0.1-0.2-0.1h-2.3
		C99.4,10,99.3,10.1,99.2,10.2 M83.8,24.2c1.1,0,2-0.3,2.8-0.8s1.3-1.2,1.6-2.1c0.1-0.3,0.1-0.5,0.1-0.6s-0.1-0.2-0.2-0.2l-2.3-0.4
		c-0.2,0-0.3,0-0.3,0.2c0,0,0,0,0,0.1s0,0.1,0,0.1c-0.1,0.4-0.3,0.7-0.6,0.9s-0.7,0.3-1.1,0.3c-0.4,0-0.8-0.1-1.1-0.3
		s-0.5-0.5-0.6-0.9s-0.2-0.9-0.2-1.6c0-0.7,0.1-1.2,0.2-1.6c0.1-0.4,0.3-0.7,0.6-0.9s0.7-0.3,1.1-0.3c0.4,0,0.8,0.1,1.1,0.3
		s0.5,0.5,0.6,0.9l0.1,0.3c0,0.1,0.1,0.2,0.2,0.2l0,0l2.3-0.3c0.1,0,0.2-0.1,0.2-0.2l0,0c0-0.2-0.1-0.4-0.2-0.7
		c-0.3-0.8-0.8-1.5-1.6-2s-1.7-0.8-2.8-0.8s-2,0.3-2.8,0.8s-1.3,1.2-1.7,2.1c-0.2,0.7-0.3,1.4-0.3,2.3c0,0.9,0.1,1.7,0.3,2.4
		c0.3,0.9,0.9,1.7,1.7,2.2C81.8,23.9,82.8,24.2,83.8,24.2 M74.5,24h2.3c0.1,0,0.1,0,0.2-0.1c0,0,0.1-0.1,0.1-0.2v-9.8
		c0-0.1,0-0.1-0.1-0.2c0,0-0.1-0.1-0.2-0.1h-2.3c-0.1,0-0.1,0-0.2,0.1c0,0-0.1,0.1-0.1,0.2v9.8c0,0.1,0,0.1,0.1,0.2
		C74.4,24,74.5,24,74.5,24 M75.7,12.6c0.5,0,0.8-0.2,1.1-0.4c0.3-0.3,0.5-0.7,0.5-1.1c0-0.5-0.1-0.8-0.4-1.1
		c-0.3-0.3-0.7-0.4-1.1-0.4c-0.5,0-0.8,0.1-1.1,0.4c-0.3,0.3-0.4,0.7-0.4,1.1c0,0.5,0.1,0.8,0.4,1.1C74.9,12.4,75.3,12.6,75.7,12.6
		 M68.3,24.1c1.3,0,2.4-0.3,3.2-0.8c0.8-0.6,1.2-1.3,1.2-2.3c0-0.8-0.3-1.5-0.8-1.9s-1.3-0.8-2.2-1.1c-0.2-0.1-0.4-0.1-0.6-0.2
		c-0.2,0-0.4-0.1-0.5-0.1c-0.6-0.1-1.1-0.3-1.4-0.4c-0.3-0.1-0.4-0.3-0.4-0.6s0.1-0.5,0.4-0.7c0.3-0.2,0.6-0.2,1.1-0.2
		s0.9,0.1,1.2,0.3s0.4,0.4,0.4,0.7c0,0.1,0,0.1,0.1,0.2c0,0,0.1,0.1,0.2,0.1h2.1c0.1,0,0.1,0,0.2-0.1c0,0,0.1-0.1,0.1-0.2
		c0-0.6-0.2-1.2-0.5-1.7c-0.4-0.5-0.8-0.9-1.5-1.2c-0.6-0.3-1.4-0.4-2.2-0.4c-1.3,0-2.3,0.3-3.1,0.9c-0.8,0.6-1.1,1.4-1.1,2.3
		c0,0.8,0.3,1.4,0.8,1.8c0.5,0.4,1.2,0.8,2,1.1c0.4,0.1,0.9,0.3,1.5,0.5c0.5,0.1,0.9,0.3,1.2,0.4c0.2,0.1,0.4,0.3,0.4,0.5
		c0,0.3-0.1,0.5-0.4,0.7c-0.3,0.2-0.6,0.3-1.1,0.3s-0.9-0.1-1.2-0.3s-0.5-0.5-0.5-0.8l0,0c0-0.1,0-0.1-0.1-0.2c0,0-0.1-0.1-0.2-0.1
		h-2.2c-0.1,0-0.1,0-0.2,0.1c0,0-0.1,0.1-0.1,0.2v0.2c0,0.6,0.2,1.1,0.5,1.5c0.4,0.5,0.9,0.8,1.6,1.1C66.6,24,67.4,24.1,68.3,24.1
		 M59.3,14v6.3c-0.1,0.4-0.2,0.8-0.5,1.1s-0.7,0.4-1.1,0.4c-0.5,0-0.9-0.2-1.2-0.5s-0.4-0.8-0.4-1.3v-6c0-0.1,0-0.1-0.1-0.2
		c0,0-0.1-0.1-0.2-0.1h-2.3c-0.1,0-0.1,0-0.2,0.1c0,0-0.1,0.1-0.1,0.2v6.7c0,1.1,0.3,2,1,2.6s1.5,0.9,2.5,0.9c1.1,0,1.9-0.4,2.5-1.1
		l0.1-0.1c0,0,0,0,0,0.1v0.7c0,0.1,0,0.1,0.1,0.2c0,0,0.1,0.1,0.2,0.1h2.3c0.1,0,0.1,0,0.2-0.1c0,0,0.1-0.1,0.1-0.2V14
		c0-0.1,0-0.1-0.1-0.2c0,0-0.1-0.1-0.2-0.1h-2.3c-0.1,0-0.1,0-0.2,0.1C59.3,13.8,59.3,13.9,59.3,14 M48.1,10.2l-3,4.7
		c0,0.1-0.1,0.1-0.1,0l-3-4.7c-0.1-0.1-0.2-0.2-0.3-0.2h-2.3c-0.1,0-0.1,0-0.2,0.1c0,0-0.1,0.1-0.1,0.2v13.5c0,0.1,0,0.1,0.1,0.2
		c0,0,0.1,0.1,0.2,0.1h2.3c0.1,0,0.1,0,0.2-0.1c0,0,0.1-0.1,0.1-0.2V15c0-0.1,0-0.1,0-0.1s0.1,0,0.1,0.1l2.1,3.3
		c0.1,0.1,0.2,0.2,0.3,0.2h1.2c0.1,0,0.2-0.1,0.3-0.2l2.1-3.3l0.1-0.1c0,0,0,0,0,0.1v8.8c0,0.1,0,0.1,0.1,0.2c0,0,0.1,0.1,0.2,0.1
		h2.3c0.1,0,0.1,0,0.2-0.1c0,0,0.1-0.1,0.1-0.2V10.3c0-0.1,0-0.1-0.1-0.2c0,0-0.1-0.1-0.2-0.1h-2.3C48.3,10,48.2,10.1,48.1,10.2"/>
	<g>
		<g>
			<path class="st0" d="M17,34c9.4,0,17-7.6,17-17S26.4,0,17,0S0,7.6,0,17S7.6,34,17,34"/>
		</g>
	</g>
	<g>
		<g>
			<path class="st1" d="M23.4,7.1h-4.3c-1.2,0-2.1,1-2.1,2.1v4.6c-0.7-0.3-1.4-0.4-2.1-0.4c-3.5,0-6.4,2.9-6.4,6.4s2.9,6.4,6.4,6.4
				s6.4-2.9,6.4-6.4v-8.5h2.1c1.2,0,2.1-1,2.1-2.1C25.5,8.1,24.5,7.1,23.4,7.1 M14.8,22c-1.2,0-2.1-1-2.1-2.1c0-1.2,1-2.1,2.1-2.1
				c1.2,0,2.1,1,2.1,2.1C17,21.1,16,22,14.8,22"/>
		</g>
	</g>
</g>
</svg>
